<svg xmlns="http://www.w3.org/2000/svg" xmlns:svg="http://www.w3.org/2000/svg" xmlns:xlink="http://www.w3.org/1999/xlink" id="svg2" width="85" height="90" version="1.0"><defs id="defs4"><linearGradient id="linearGradient3152"><stop style="stop-color:#e6e6e6;stop-opacity:1" id="stop3154" offset="0"/><stop style="stop-color:gray;stop-opacity:1" id="stop3156" offset="1"/></linearGradient><linearGradient id="linearGradient3158" x1="30" x2="70" y1="12.5" y2="37.5" gradientUnits="userSpaceOnUse" xlink:href="#linearGradient3152"/><filter id="filter6100" color-interpolation-filters="sRGB"><feGaussianBlur id="feGaussianBlur6102" stdDeviation="2.719"/></filter></defs><metadata id="metadata7"/><g id="layer1" transform="translate(-10,-7.5)"><path id="rect2167" d="m 20,17.5 65,0 5,5 0,70 -70,0 0,-75 z" style="fill:#999;fill-rule:evenodd;stroke:none;filter:url(#filter6100)"/><path style="fill:#d3bc5f;fill-rule:evenodd;stroke:none" id="rect2160" d="m 15,12.5 65,0 5,5 0,70 -70,0 0,-75 z"/><rect style="fill:url(#linearGradient3158);fill-opacity:1;fill-rule:evenodd;stroke:none" id="rect2163" width="40" height="25" x="30" y="12.5"/><rect style="fill:#d3bc5f;fill-rule:evenodd;stroke:none" id="rect2165" width="10" height="20" x="55" y="15"/><rect style="fill:#ececec;fill-rule:evenodd;stroke:none" id="rect3158" width="55" height="40" x="22.5" y="47.5"/><rect style="fill:#666;fill-rule:evenodd;stroke:none" id="rect2169" width="4" height="3" x="16.5" y="82"/><rect style="fill:#666;fill-rule:evenodd;stroke:none" id="rect2171" width="4" height="3" x="79.5" y="82"/><path style="fill:none;stroke:#000;stroke-width:.50002521;stroke-linecap:butt;stroke-linejoin:miter;stroke-opacity:1" id="path3145" d="m 25.25,54.749987 49.5,0"/><path id="path3147" d="m 25.25,59.749987 49.5,0" style="fill:none;stroke:#000;stroke-width:.50002521;stroke-linecap:butt;stroke-linejoin:miter;stroke-opacity:1"/><path id="path3150" d="m 25.25,64.749987 49.5,0" style="fill:none;stroke:#000;stroke-width:.50002521;stroke-linecap:butt;stroke-linejoin:miter;stroke-opacity:1"/><path style="fill:none;stroke:#000;stroke-width:.50002521;stroke-linecap:butt;stroke-linejoin:miter;stroke-opacity:1" id="path3152" d="m 25.25,69.749987 49.5,0"/><path id="path3154" d="m 25.25,74.749987 49.5,0" style="fill:none;stroke:#000;stroke-width:.50002521;stroke-linecap:butt;stroke-linejoin:miter;stroke-opacity:1"/><path style="fill:none;stroke:#000;stroke-width:.50002521;stroke-linecap:butt;stroke-linejoin:miter;stroke-opacity:1" id="path3156" d="m 25.25,79.749987 49.5,0"/></g></svg>